<svg xmlns="http://www.w3.org/2000/svg" viewBox="0 0 400 460" fill="none">
  <defs>
    <linearGradient id="bm-bg" x1="0" y1="0" x2="1" y2="1">
      <stop offset="0%" stop-color="#DB2777"/>
      <stop offset="100%" stop-color="#831843"/>
    </linearGradient>
  </defs>
  <path d="M200 60 C280 60 340 120 340 200 C340 280 280 320 200 360 C120 320 60 280 60 200 C60 120 120 60 200 60 Z" fill="url(#bm-bg)"/>
  <path d="M160 210 Q200 140 240 210 Q220 240 200 260 Q180 240 160 210 Z" fill="#FBCFE8" opacity="0.9"/>
  <path d="M180 260 Q200 290 220 260" fill="none" stroke="#FBCFE8" stroke-width="3" stroke-linecap="round"/>
  <circle cx="200" cy="390" r="5" fill="#F472B6"/>
  <circle cx="180" cy="405" r="3" fill="#F472B6" opacity="0.6"/>
  <circle cx="220" cy="405" r="3" fill="#F472B6" opacity="0.6"/>
  <circle cx="160" cy="415" r="2" fill="#F472B6" opacity="0.4"/>
  <circle cx="240" cy="415" r="2" fill="#F472B6" opacity="0.4"/>
  <text x="200" y="450" font-family="'Georgia', 'Times New Roman', serif" font-size="28" font-weight="700" fill="#FFFFFF" text-anchor="middle" letter-spacing="4">BRANDMUSE</text>
</svg>
